<svg xmlns="http://www.w3.org/2000/svg" width="168" height="50" fill="none" viewBox="0 0 168 50"><path fill="#fff" d="M162.517 37.3327V0.000183105H168V37.3327H162.517Z"/><path fill="#fff" d="M145.799 13.5716C147.354 13.5716 148.792 13.857 150.114 14.4271C151.435 14.9713 152.576 15.7485 153.535 16.7591C153.535 15.7358 153.841 15.0942 154.321 14.6946C155.331 13.853 157.107 14.0853 158.394 14.0853V37.3616H153.593L153.535 25.9046C153.534 25.9089 153.532 25.913 153.531 25.9173C153.533 25.8451 153.535 25.7725 153.535 25.6995C153.535 24.352 153.211 23.1336 152.563 22.0452C151.941 20.9571 151.099 20.0895 150.037 19.4417C148.974 18.768 147.782 18.431 146.46 18.431C145.165 18.431 143.973 18.7679 142.884 19.4417C141.822 20.0895 140.967 20.957 140.319 22.0452C139.697 23.1336 139.386 24.352 139.386 25.6995C139.386 27.0212 139.697 28.2395 140.319 29.3538C140.967 30.4421 141.822 31.3105 142.884 31.9583C143.947 32.6061 145.139 32.93 146.46 32.93C147.782 32.93 148.974 32.6062 150.037 31.9583C151.099 31.3105 151.941 30.4421 152.563 29.3538C152.602 29.2887 152.639 29.2226 152.675 29.1566C151.907 31.9552 150.942 35.173 150.159 36.9515C150.144 36.958 150.129 36.9665 150.114 36.973C148.792 37.5429 147.354 37.8275 145.799 37.8275C143.648 37.8274 141.692 37.283 139.93 36.1946C138.168 35.0804 136.755 33.6169 135.693 31.803C134.656 29.9631 134.138 27.9282 134.138 25.6995C134.138 23.471 134.656 21.4368 135.693 19.597C136.755 17.757 138.168 16.2928 139.93 15.2044C141.692 14.116 143.648 13.5716 145.799 13.5716Z"/><path fill="#fff" d="M124.685 37.2771V18.4205H118.764V13.946H122.329H124.801V6.23749H130.057V13.946C130.057 13.946 131.647 13.946 132.666 13.946C135.696 13.946 135.274 18.4205 135.274 18.4205H130.174V37.2771H124.685Z"/><path fill="#fff" d="M111.877 37.3332V14.0004H117.36V37.3332H111.877Z"/><path fill="#fff" d="M75.3428 37.3329V14.0001H78.0844H80.8259V37.3329H75.3428Z"/><path fill="#fff" d="M71.2653 37.3322H66.4039V34.6496C66.3995 34.654 66.3947 34.6579 66.3903 34.6623V26.1428C66.3995 25.9858 66.4039 25.8269 66.4039 25.6662C66.4039 24.3182 66.0803 23.0997 65.4323 22.0109C64.8101 20.9221 63.9668 20.0536 62.9039 19.4055C61.8411 18.7315 60.6488 18.3937 59.3268 18.3937C58.0307 18.3937 56.8384 18.7315 55.7496 19.4055C54.6867 20.0536 53.8304 20.9221 53.1823 22.0109C52.5602 23.0997 52.2496 24.3182 52.2496 25.6662C52.2496 26.9882 52.5602 28.2068 53.1823 29.3215C53.8304 30.4103 54.6867 31.2788 55.7496 31.9269C56.8125 32.575 58.0047 32.8996 59.3268 32.8996C60.6489 32.8996 61.8411 32.575 62.9039 31.9269C63.9668 31.2788 64.8101 30.4103 65.4323 29.3215C65.4564 29.281 65.4784 29.2393 65.5016 29.1984C64.7191 32.0003 63.7335 35.2038 62.943 36.9582C61.6314 37.5176 60.2061 37.799 58.6656 37.799C56.5139 37.799 54.5564 37.2551 52.7936 36.1662C51.0308 35.0514 49.6182 33.5864 48.5553 31.7717C47.5183 29.931 46.9996 27.8958 46.9996 25.6662C46.9996 23.4366 47.5183 21.4014 48.5553 19.5607C49.6182 17.7201 51.0308 16.255 52.7936 15.1662C54.5564 14.0773 56.5139 13.5334 58.6656 13.5334C60.0656 13.5334 61.3618 13.7669 62.5543 14.2336C63.7727 14.6743 64.8486 15.2962 65.7819 16.0998V0.000183105H71.2653V37.3322Z"/><path fill="#fff" d="M95.1957 13.5333C96.7511 13.5333 98.19 13.8184 99.5121 14.3887C100.834 14.9331 101.975 15.7108 102.934 16.7217V14.0001H107.795V37.4883C107.795 40.029 107.186 42.2068 105.967 44.0215C104.775 45.8362 103.18 47.2235 101.184 48.1827C99.1879 49.1418 97.0492 49.6212 94.7679 49.6212C92.9532 49.6212 91.2677 49.3492 89.7123 48.8047C88.1569 48.2863 86.7958 47.5734 85.6293 46.6661L87.0297 40.9493C87.8333 42.064 88.896 42.972 90.2181 43.6719C91.5402 44.3978 93.0439 44.7608 94.7289 44.7608C97.2436 44.7608 99.2273 44.0217 100.679 42.544C102.157 41.0922 102.895 39.1995 102.895 36.8663V34.6495C102.884 34.6607 102.871 34.6705 102.86 34.6817L102.961 26.0089C102.948 26.0622 102.932 26.116 102.918 26.171C102.929 26.0048 102.934 25.8364 102.934 25.6661C102.934 24.3181 102.61 23.0996 101.962 22.0108C101.34 20.9219 100.497 20.0535 99.434 19.4053C98.3711 18.7314 97.1788 18.3946 95.8568 18.3946C94.5607 18.3946 93.3684 18.7314 92.2797 19.4053C91.2168 20.0535 90.3604 20.9219 89.7123 22.0108C89.0902 23.0996 88.7797 24.3181 88.7797 25.6661C88.7797 26.9881 89.0903 28.2067 89.7123 29.3214C90.3604 30.4102 91.2168 31.2787 92.2797 31.9268C93.3425 32.5749 94.5347 32.8995 95.8568 32.8995C97.1789 32.8995 98.3711 32.5749 99.434 31.9268C100.497 31.2787 101.34 30.4102 101.962 29.3214C102.025 29.2164 102.083 29.1094 102.139 29.002C101.32 31.8187 100.24 35.1275 99.389 36.9766C98.0903 37.5234 96.6932 37.7999 95.1957 37.7999C93.044 37.7999 91.0865 37.2549 89.3236 36.1661C87.5608 35.0513 86.1482 33.5863 85.0853 31.7715C84.0484 29.9309 83.5297 27.8956 83.5297 25.6661C83.5297 23.4366 84.0484 21.4012 85.0853 19.5606C86.1482 17.7201 87.5608 16.2549 89.3236 15.1661C91.0864 14.0773 93.044 13.5333 95.1957 13.5333Z"/><path fill="#fff" d="M116.792 8.89831C117.091 8.67227 117.091 8.22328 116.792 7.9972L112.78 4.96137C112.408 4.67977 111.874 4.94522 111.874 5.41191L111.874 11.4827C111.874 11.9494 112.408 12.2149 112.78 11.9333L116.792 8.89831Z"/><path fill="#fff" d="M80.2153 7.99597C80.5141 8.22202 80.5141 8.67101 80.2153 8.89709L76.2034 11.9329C75.8312 12.2145 75.2975 11.9491 75.2975 11.4824L75.2975 5.41155C75.2975 4.9449 75.8312 4.67943 76.2033 4.96097L80.2153 7.99597Z"/><path fill="#fff" d="M11.678 13.5722C13.2327 13.5722 14.6709 13.8576 15.9924 14.4277C17.314 14.9719 18.4545 15.7491 19.4133 16.7597C19.4133 15.7364 19.7202 15.0948 20.1995 14.6953C21.2094 13.8536 22.986 14.0859 24.2727 14.0859V37.3622H19.4729L19.4143 25.9052C19.4129 25.9108 19.4108 25.9162 19.4094 25.9218C19.4114 25.8483 19.4133 25.7744 19.4133 25.7001C19.4133 24.3526 19.0895 23.1342 18.4417 22.0458C17.8198 20.9577 16.9775 20.0901 15.9153 19.4423C14.8529 18.7686 13.6607 18.4316 12.3391 18.4316C11.0434 18.4316 9.85133 18.7685 8.76294 19.4423C7.70065 20.0901 6.84531 20.9577 6.19751 22.0458C5.5756 23.1342 5.26491 24.3526 5.26489 25.7001C5.26489 27.0218 5.57557 28.2401 6.19751 29.3544C6.84534 30.4427 7.70054 31.3111 8.76294 31.9589C9.82536 32.6067 11.0176 32.9306 12.3391 32.9306C13.6607 32.9306 14.8529 32.6068 15.9153 31.9589C16.9777 31.3111 17.8197 30.4428 18.4417 29.3544C18.4812 29.288 18.5188 29.2206 18.5559 29.1533C17.7879 31.9528 16.8224 35.1728 16.0383 36.9521C16.023 36.9588 16.0078 36.9669 15.9924 36.9736C14.6709 37.5436 13.2326 37.8281 11.678 37.8281C9.52718 37.828 7.57095 37.2836 5.80884 36.1953C4.0468 35.081 2.63398 33.6175 1.57153 31.8036C0.534974 29.9637 0.0168457 27.9288 0.0168457 25.7001C0.0168665 23.4716 0.535085 21.4374 1.57153 19.5976C2.63401 17.7577 4.04669 16.2934 5.80884 15.205C7.57093 14.1167 9.52721 13.5722 11.678 13.5722Z"/><path fill="#fff" d="M30.9165 37.3835V18.5269H24.9955V14.0524H28.5612H31.0333V6.34387H36.289V14.0524C36.289 14.0524 37.8787 14.0524 38.8974 14.0524C41.9275 14.0524 41.5057 18.5269 41.5057 18.5269H36.4058V37.3835H30.9165Z"/></svg>