<svg xmlns="http://www.w3.org/2000/svg" width="45" height="45" fill="none" viewBox="0 0 45 45"><path fill="#fff" d="M9.87622 43.2046C10.4414 43.9483 11.5599 43.9484 12.1252 43.2048L20.2807 32.4765C20.9876 31.5466 20.3244 30.2093 19.1562 30.2093H2.84753C1.67945 30.2093 1.01619 31.5464 1.72296 32.4764L9.87622 43.2046Z"/><path fill="#fff" d="M24.1477 2.46591C23.5999 1.70101 22.4714 1.67545 21.8895 2.41475L11.8813 15.1299C11.4834 15.6355 11.4774 16.346 11.8667 16.8582L22.0138 30.2091L31.8928 43.2046C32.4581 43.9482 33.5767 43.9481 34.1419 43.2044L43.3875 31.0389C43.7624 30.5455 43.772 29.8655 43.4112 29.3617L24.1477 2.46591Z"/></svg>